<?xml version="1.0" standalone="no"?>
<!DOCTYPE svg PUBLIC "-//W3C//DTD SVG 20010904//EN"
 "http://www.w3.org/TR/2001/REC-SVG-20010904/DTD/svg10.dtd">
<svg version="1.0" xmlns="http://www.w3.org/2000/svg"
 width="601.000000pt" height="601.000000pt" viewBox="0 0 601.000000 601.000000"
 preserveAspectRatio="xMidYMid meet">
<metadata>
Created by potrace 1.14, written by Peter Selinger 2001-2017
</metadata>
<g transform="translate(0.000000,601.000000) scale(0.100000,-0.100000)"
fill="#000000" stroke="none">
<path d="M2540 5980 c-65 -20 -124 -49 -164 -83 -37 -30 -39 -68 -11 -217 3
-14 7 -41 9 -60 3 -19 7 -48 10 -65 3 -16 8 -59 11 -95 3 -36 7 -81 9 -100 8
-67 16 -165 21 -230 6 -84 15 -165 23 -215 4 -22 7 -69 7 -105 0 -64 -1 -65
-28 -68 l-27 -3 5 -77 c3 -42 7 -92 9 -109 4 -29 2 -33 -17 -33 -16 0 -22 6
-23 23 0 19 -7 60 -17 102 -7 32 -63 108 -100 137 -116 93 -233 125 -438 122
l-124 -2 -1 28 c-3 81 -72 148 -189 186 -91 29 -235 24 -340 -11 -69 -23 -99
-27 -220 -29 -186 -4 -265 -29 -383 -124 -97 -77 -206 -281 -228 -425 -4 -23
-12 -48 -18 -56 -9 -12 -8 -13 4 -6 12 7 13 6 3 -6 -10 -12 -10 -18 0 -29 9
-10 9 -11 0 -6 -8 5 -13 1 -13 -9 0 -9 5 -13 10 -10 6 3 10 -3 10 -14 0 -41
45 -26 226 76 70 39 95 49 144 59 24 4 25 2 26 -48 1 -122 32 -248 76 -313 37
-53 101 -105 158 -126 82 -32 218 -31 283 0 26 13 49 22 50 20 2 -2 18 -27 35
-55 53 -84 139 -134 235 -136 26 -1 47 -4 47 -8 0 -3 -16 -22 -36 -41 -43 -41
-150 -201 -194 -286 -37 -74 -118 -305 -147 -423 -2 -8 -5 -75 -7 -148 -3
-124 -2 -136 21 -182 18 -37 31 -50 53 -55 35 -8 115 1 190 21 30 9 62 17 70
19 38 10 173 65 195 79 24 16 26 15 111 -69 47 -47 90 -85 94 -85 5 0 15 -6
22 -13 73 -70 354 -192 543 -236 45 -11 50 -15 51 -39 0 -15 4 -70 8 -122 10
-134 13 -167 20 -240 15 -153 26 -273 31 -335 2 -27 6 -77 9 -110 4 -33 8 -87
11 -120 3 -33 7 -80 10 -105 3 -25 7 -70 10 -100 3 -30 8 -66 10 -80 2 -14 6
-54 9 -90 3 -36 10 -98 16 -137 16 -113 14 -267 -5 -378 -3 -16 -7 -50 -10
-75 -3 -25 -8 -58 -12 -75 -3 -16 -7 -39 -9 -50 -1 -11 -6 -38 -9 -60 -11 -61
-12 -133 -3 -200 14 -107 37 -136 89 -116 51 19 79 80 74 162 -4 65 -16 173
-21 180 -2 4 -6 24 -9 45 -3 22 -7 53 -10 69 -6 41 -16 173 -19 245 -2 33 3
108 10 167 27 229 29 238 47 203 17 -34 38 -35 61 -3 16 22 20 47 23 132 3
125 23 191 89 307 26 43 62 106 81 139 91 159 224 448 268 585 61 190 61 190
85 191 11 1 23 2 28 4 4 1 21 5 37 9 296 74 536 200 678 356 l54 60 59 -29
c105 -52 263 -99 359 -107 112 -9 139 32 141 216 1 73 -4 149 -12 185 -12 50
-60 203 -81 255 -3 8 -7 20 -8 25 -7 28 -49 123 -72 164 -36 62 -136 211 -159
236 -60 66 -60 63 -12 63 47 1 59 3 101 20 16 7 31 12 34 12 19 0 78 59 111
110 33 50 41 57 53 45 27 -25 102 -43 174 -40 88 4 106 8 174 42 127 65 196
218 200 444 l1 36 53 -18 c28 -9 97 -43 152 -73 55 -31 117 -62 138 -68 33
-10 39 -9 51 7 13 19 14 74 1 125 -3 14 -8 35 -11 48 -2 13 -16 52 -29 88 -90
239 -224 371 -425 418 -38 9 -110 15 -184 14 -78 -1 -130 4 -145 11 -12 7 -30
14 -39 16 -9 2 -44 11 -77 19 -68 16 -187 14 -255 -4 -117 -32 -199 -106 -203
-184 l-2 -33 -135 0 c-131 0 -236 -16 -300 -44 -76 -35 -97 -48 -142 -91 -48
-46 -82 -106 -92 -163 -17 -93 -14 -88 -66 -91 -37 -2 -40 0 -41 24 0 15 -2
41 -4 57 -3 17 -7 62 -10 100 -11 145 -14 172 -24 199 l-11 27 -77 -6 c-43 -3
-111 -8 -151 -11 -41 -2 -78 -6 -84 -7 -6 -1 -55 53 -109 120 -97 119 -99 122
-105 185 -12 127 -14 165 -19 278 -3 63 -5 126 -6 140 -4 85 1 106 36 144 53
59 54 74 8 116 -35 31 -142 93 -157 91 -3 0 -23 6 -44 13 -53 19 -175 17 -242
-4z"/>
</g>
</svg>
